PathFileType	4	(X/Y/Z)	C:/Users/beibeiliu/ov580/test_trc/capture2\sequence.8_training_dense_right.trc
DataRate	CameraRate	NumFrames	NumMarkers	Units	OrigDataRate	OrigDataStartFrame	OrigNumFrames
120	120	24	19	mm	120	1	400
Frame#	Time	ThumbCMC			ThumbMCP			ThumbIP			ThumbTip			IndexMCP			IndexPIP			IndexTip			MiddleMCP			MiddlePIP			MiddleTip			RingMCP			RingPIP			RingTip			PinkyMCP			PinkyPIP			PinkyTip			BackHand1			BackHand2			BackHand3	
		X0	Y0	Z0	X1	Y1	Z1	X2	Y2	Z2	X3	Y3	Z3	X4	Y4	Z4	X5	Y5	Z5	X6	Y6	Z6	X7	Y7	Z7	X8	Y8	Z8	X9	Y9	Z9	X10	Y10	Z10	X11	Y11	Z11	X12	Y12	Z12	X13	Y13	Z13	X14	Y14	Z14	X15	Y15	Z15	X16	Y16	Z16	X17	Y17	Z17	X18	Y18	Z18	
0	0	111.838	34.475	-30.6068	89.0662	23.0439	-46.2225	72.9838	17.3231	-66.8987	58.7656	14.2383	-81.5097	128.323	33.1505	-103.138	124.619	29.3414	-129.24	121.673	34.0232	-147.818	159.266	33.078	-105.907	160.271	30.0868	-129.46	169.551	33.3352	-155.092	179.277	23.8566	-98.5409	188.669	19.1645	-119.265	201.649	19.3496	-141.435	197.574	12.3318	-80.7079	211.421	2.20391	-91.8185	229.251	0.383752	-102.005	170.288	43.5157	-53.7836	166.251	54.3716	-24.4702	137.934	52.2089	-42.9682	
1	0.00833333	109.164	32.4844	-35.0382	92.4427	20.8454	-45.0722	73.7289	15.7156	-68.2	56.3844	13.6625	-77.4438	127.742	31.2403	-102.457	121.884	29.6635	-127.846	124.774	32.9294	-151.264	154.784	31.4013	-104.843	159.637	28.9955	-132.954	168.677	32.7051	-156.42	176.837	22.6527	-100.509	190.968	17.4845	-114.507	199.345	17.7178	-141.307	195.507	10.7076	-79.5038	211.672	1.00835	-92.2969	227.693	-1.69048	-107.345	169.361	40.6706	-52.7358	166.071	50.8984	-23.8067	137.387	50.9372	-45.6434	
2	0.0166667	107.889	34.3166	-30.0431	92.5168	20.2848	-47.5637	72.5804	16.3494	-67.053	58.6727	13.475	-80.3313	128.059	31.723	-103.036	121.125	29.3479	-124.091	125.144	32.5164	-147.965	155.684	31.8546	-109.782	159.118	29.7353	-132.655	169.124	32.8943	-158.095	179.131	22.9995	-98.1801	186.946	18.2501	-115.858	199.414	17.2876	-140.093	196.446	11.8996	-80.8831	209.886	1.34129	-90.254	225.654	0.369356	-103.912	170.572	40.7853	-53.6212	169.72	51.0089	-26.1623	139.589	52.078	-43.9932	
3	0.025	107.141	35.0233	-33.4267	90.667	22.4111	-45.2236	73.4459	16.614	-69.0322	56.6649	13.5478	-80.5728	125.908	33.92	-101.517	120.784	30.9776	-128.689	125.666	34.5661	-149.916	159.226	33.8289	-107.436	163.055	31.4211	-133.356	170.717	33.5907	-156.493	178.187	26.4354	-100.772	189.559	21.5654	-119.846	198.242	19.7751	-141.966	195.956	14.4811	-80.4016	207.928	4.56797	-90.15	229.408	3.12096	-106.434	168.043	44.7041	-54.8299	167.732	51.5346	-23.5294	136.139	52.2287	-47.9008	
4	0.0333333	106.125	36.5437	-35.3544	92.0989	22.7219	-46.993	73.6974	17.764	-68.0159	57.7475	13.3702	-82.4384	126.906	36.3585	-105.87	120.328	33.8945	-125.858	125.116	36.476	-149.677	153.618	37.6383	-105.437	160.196	34.497	-134.215	166.189	38.0982	-155.849	176.078	29.175	-96.7761	186.808	25.0757	-122.076	198.612	25.0878	-144.023	196.035	18.1116	-78.1474	211.348	8.77896	-94.7412	229.582	6.79143	-107.791	167.752	47.3507	-51.8085	170.068	55.7817	-23.9765	140.366	54.6624	-43.7255	
5	0.0416667	106.886	37.3284	-36.813	94.4383	23.2466	-48.4941	76.8145	17.9869	-64.7322	60.6694	13.7208	-80.6071	123.572	39.2302	-104.931	123.811	36.9386	-129.636	117.982	41.6662	-152.725	155.41	42.5434	-106.373	161.096	40.6264	-131.425	164.014	43.6524	-155.683	175.904	35.326	-101.84	188.561	32.0918	-119.503	194.939	30.6567	-142.66	199.417	23.9038	-82.1106	208.414	16.6055	-94.694	231.931	16.7949	-109.54	171.587	50.9226	-54.666	166.704	58.661	-27.5962	139.448	57.2797	-48.1556	
6	0.05	108.923	37.7707	-35.7429	91.3651	25.1007	-47.0513	72.291	18.8842	-66.8104	58.0731	13.3397	-78.4356	123.585	42.8179	-105.496	117.124	40.714	-129.724	121.462	45.2983	-152.346	151.305	48.5669	-108.428	157.231	46.6221	-132.63	163.183	50.8695	-158.336	178.733	42.7411	-101.626	188.486	39.6626	-120.572	196.89	39.8709	-142.776	195.707	32.5142	-82.6426	213.284	24.1381	-95.7002	232.106	26.3444	-111.547	165.964	58.1759	-53.0924	162.276	63.3887	-25.8049	135.196	59.8845	-47.5193	
7	0.0583333	107.074	38.829	-31.0581	92.3724	24.9888	-47.537	74.7924	18.5226	-66.3283	58.5323	13.6687	-80.1946	119.521	47.1219	-105.112	118.13	44.753	-131.446	116.072	50.7414	-154.12	151.509	53.2433	-109.85	155.379	52.4801	-134.209	163.701	59.1628	-161.66	177.63	49.1303	-102.348	187.817	48.0669	-122.009	191.755	49.4899	-144.158	194.436	41.1613	-82.1366	208.128	34.3365	-95.8206	229.727	38.7605	-110.028	163.44	63.759	-57.2935	160.395	68.6831	-23.5787	130.175	63.705	-44.1169	
8	0.0666667	109.979	39.7235	-35.6541	93.2988	25.4322	-47.2598	78.3697	19.1269	-65.4909	61.2262	13.2467	-78.2051	119.986	50.4269	-106.179	114.996	49.3385	-129.152	115.783	53.9995	-149.608	149.589	59.2952	-108.396	153.871	59.0417	-136.304	156.888	63.2917	-156.688	171.446	56.6955	-99.6112	181.943	55.2743	-120.611	191.949	59.4869	-146.854	195.339	49.1663	-83.8503	207.931	42.9934	-99.7072	227.8	47.3544	-108.616	165.312	69.7406	-54.9973	162.083	72.6022	-25.9312	131.964	66.1674	-42.2602	
9	0.075	107.576	43.18	-31.2492	94.0982	27.1924	-48.6619	78.3168	21.5471	-66.3326	61.5933	16.1154	-80.8786	120.897	56.6253	-106.346	113.238	52.8954	-125.99	113.209	58.8171	-152.936	144.793	65.74	-111.534	151.06	66.0734	-136.337	152.908	71.5646	-157.645	171.16	64.2205	-99.9998	179.425	63.497	-121.508	188.151	67.7814	-146.373	196.572	57.1022	-83.8418	208.003	52.5429	-99.62	223.563	58.9278	-113.873	159.368	72.0614	-52.9201	161.052	76.5395	-26.9538	132.27	72.2936	-41.4096	
10	0.0833333	110.836	48.1781	-35.3807	92.8374	32.4075	-51.7218	76.5453	24.6489	-68.8416	63.3762	19.3642	-84.6822	118.706	62.4925	-103.003	111.962	60.3853	-130.631	115.274	67.0522	-151.165	146.591	72.7126	-110.97	151.873	74.5762	-132.864	153.833	80.0208	-158.773	173.121	72.2707	-104.032	180.452	72.5326	-122.573	188.061	76.9175	-146.435	196.912	64.231	-84.8029	207.517	60.9075	-101.05	225.769	68.9635	-117.185	159.091	78.9318	-51.8164	158.721	83.6062	-23.6413	131.598	74.9374	-41.4038	
11	0.0916667	110.123	52.5095	-32.4325	99.1593	38.8092	-52.4734	78.6068	31.189	-74.8772	62.2292	25.5539	-87.8143	117.368	68.8736	-106.492	114.696	69.1014	-131.141	112.961	75.0421	-154.382	144.011	79.3957	-108.863	150.359	82.9563	-135.28	150.341	89.2651	-159.814	172.508	80.0269	-104.295	181.952	80.3104	-122.864	188.247	85.6462	-149.238	194.494	72.0897	-91.2856	210.276	69.8497	-103.913	226.752	76.4411	-115.881	161.999	86.308	-57.4259	158.949	88.2309	-25.9008	128.413	80.0663	-46.5314	
12	0.1	108.367	59.452	-35.068	98.5466	45.9333	-54.5103	81.7021	39.1349	-72.1804	65.8807	34.7467	-86.8535	116.803	78.6564	-109.606	116.001	78.2682	-131.901	111.86	82.9232	-150.651	144.54	89.542	-114.461	153.161	92.4494	-138.241	154.322	99.5336	-160.364	172.213	88.2761	-106.603	184.538	90.5161	-126.399	187.133	96.0278	-149.601	197.059	81.087	-90.3907	208.43	78.0882	-104.815	224.877	85.1777	-118.665	160.271	95.2354	-56.9302	159.747	94.0715	-27.366	128.685	89.6082	-43.6101	
13	0.108333	113.57	67.4448	-38.9625	98.27	52.9112	-56.2413	82.8749	48.7832	-75.4301	66.7481	43.3601	-86.7807	122.52	87.4539	-107.721	118.466	88.5119	-132.061	113.526	96.3579	-155.796	150.477	98.5074	-109.703	153.586	101.156	-134.255	156.179	111.531	-161.891	176.386	97.021	-106.873	179.676	97.6934	-126.06	189.585	104.644	-145.91	197.918	87.8318	-87.0195	212.276	85.4166	-105.14	223.575	92.6794	-117.082	161.692	100.615	-54.0821	161.667	100.832	-28.6217	129.685	96.5417	-43.8495	
14	0.116667	112.104	73.5066	-39.9725	96.0768	59.6193	-54.946	81.8364	56.4956	-75.9765	63.1796	52.9973	-92.5152	119.61	97.4899	-110.831	118.449	98.7017	-134.643	113.474	105.494	-153.551	146.83	106.278	-111.948	154.365	110.743	-133.291	155.34	121.522	-160.36	176.981	105.403	-104.934	183.796	109.555	-127.867	189.926	116.797	-150.209	197.018	94.9686	-88.4211	212.372	93.9865	-100.709	227.811	103.427	-117.939	165.883	107.777	-55.1245	160.204	106.953	-26.6379	132.086	101.881	-47.5659	
15	0.125	109.834	81.4904	-41.164	97.7971	68.2677	-57.914	80.249	65.3593	-76.5285	65.8332	62.5412	-91.4849	119.135	107.288	-109.438	115.404	109.083	-133.881	112.009	118.165	-152.372	148.42	117.156	-113.007	150.469	122.524	-136.675	153.278	133.165	-157.286	172.45	114.79	-106.376	185.372	119.016	-121.858	191.89	128.055	-146.596	197.844	103.75	-88.624	211.768	102.056	-101.894	226.626	111.975	-116.423	166.824	116.44	-53.0995	164.158	114.891	-27.5964	132.352	109.015	-43.5957	
16	0.133333	112.989	87.3123	-40.6138	95.2742	75.8483	-59.5535	81.0208	74.9487	-82.19	63.687	71.911	-95.0946	119.314	117	-109.231	114.296	119.63	-130.785	115.315	133.037	-152.062	147.178	126.39	-107.942	151.045	132.229	-131.843	158.753	145.253	-153.085	171.818	121.945	-100.664	183.085	128.682	-124.228	189.728	139.412	-145.989	196.801	111.046	-85.6167	211.46	110.426	-105.11	226.842	121.013	-117.185	164.638	122.195	-51.4025	163.387	119.061	-22.7967	133.266	114.725	-41.6643	
17	0.141667	109.179	93.9337	-41.7985	97.0016	83.5851	-63.3001	78.1709	81.7178	-78.8019	64.1423	81.1951	-92.893	121.562	127.765	-107.363	117.239	132.732	-128.656	115.707	144.054	-147.048	150.389	136.346	-108.128	153.735	144.942	-131.508	154.71	158.169	-151.737	171.462	131.748	-102.002	185.432	138.88	-123.012	188.144	148.188	-142.006	196.61	119.378	-89.1533	211.954	118.93	-103.815	228.275	129.31	-110.616	165.803	128.093	-49.9067	162.703	122.461	-19.6494	130.072	120.005	-40.8607	
18	0.15	106.703	98.4771	-37.464	94.901	91.1976	-62.2382	76.951	89.4361	-78.1356	61.4562	90.3606	-94.1021	118.744	135.183	-102.175	116.903	142.399	-122.99	116.666	159.564	-143.741	147.074	145.975	-106.439	154.065	152.685	-124.467	159.109	170.534	-146.952	175.544	139.038	-95.3684	182.403	146.659	-115.879	189.441	159.433	-138.785	195.252	125.925	-84.2883	210.977	127.493	-102.816	226.199	135.399	-108.733	161.848	133.519	-50.2176	160.076	124.493	-21.2995	132.632	127.213	-39.4541	
19	0.158333	107.343	103.896	-39.6785	96.9721	97.7476	-62.6963	80.6006	97.0209	-78.5279	63.0833	98.141	-95.3837	120.829	140.968	-98.0692	116.408	151.061	-120.315	113.47	165.621	-136.181	152.206	152.992	-102.416	154.124	162.165	-123.002	156.38	180.671	-142.237	175.76	147.33	-97.0521	180.975	155.145	-115.315	190.305	169.737	-136.07	193.818	130.923	-82.9396	209.458	132.41	-98.1979	224.291	146.721	-110.598	162.224	138.552	-49.6261	162.343	130.182	-21.1515	133.515	130.639	-35.5556	
20	0.166667	110.872	106.693	-40.4052	96.7383	99.6222	-58.2228	75.5561	100.912	-77.7726	66.3911	104.782	-96.9798	124.704	148.649	-97.0927	115.708	157.405	-116.842	114.42	173.805	-132.367	147.983	156.033	-96.3694	153.395	167.071	-116.293	153.115	188.667	-137.456	174.197	151.865	-94.1754	181.542	161.159	-113.166	192.285	173.919	-127.356	198.894	135.085	-80.6763	210.433	135.719	-94.3656	227.049	148.953	-104.792	167.489	139.976	-41.8292	164.348	131.369	-15.7676	130.154	133.508	-39.1926	
21	0.175	108.563	109.473	-39.4458	96.8432	103.55	-61.8743	75.2221	105.401	-78.7231	64.4584	106.642	-93.5579	122.582	153.92	-97.3062	116.667	161.332	-112.168	114.697	182.566	-130.071	150.032	160.973	-96.1321	150.378	173.409	-117.039	154.986	192.966	-131.785	177.401	155.174	-92.3129	183.169	161.797	-107.529	192.247	178.352	-123.633	199.449	138.675	-81.7464	209.537	140.079	-96.2466	225.143	152.925	-104.795	162.457	141.094	-40.833	163.187	130.633	-15.2992	134.462	135.403	-33.3725	
22	0.183333	109.688	110.342	-38.938	97.8533	103.375	-58.7146	77.2382	109.017	-80.719	63.1586	110.154	-95.506	122.056	155.809	-95.4782	118.589	165.564	-114.311	118.506	183.702	-126.248	153.275	160.052	-92.3575	155.956	173.595	-113.669	157.42	196.409	-130.621	177.594	153.623	-87.9625	183.185	164.179	-106.708	193.794	180.622	-121.782	196.88	140.054	-82.7435	211.402	139.771	-93.401	223.969	155.563	-104.92	164.02	144.025	-44.3713	161.461	129.289	-13.6572	134.345	136.436	-36.3102	
23	0.191667	107.443	107.607	-37.1037	96.5831	102.257	-59.9365	80.6852	105.613	-78.0256	60.9087	107.504	-92.6495	126.153	152.148	-92.6212	117.761	163.959	-113.382	121.504	181.145	-125.406	150.226	157.953	-92.8918	156.702	171.487	-114.01	158.894	190.862	-128.11	177.128	151.435	-90.5603	187.674	163.696	-108.159	192.04	180.649	-125.225	198.686	136.658	-81.6123	207.43	137.262	-93.151	227.584	149.224	-103.606	166.666	140.174	-45.3665	162.88	129.662	-13.4734	133.637	133.948	-32.5739	
